<svg id="e6zvCFmwNrY1" xmlns="http://www.w3.org/2000/svg" xmlns:xlink="http://www.w3.org/1999/xlink" viewBox="0 0 100 100" shape-rendering="geometricPrecision" text-rendering="geometricPrecision" project-id="650fcc36f92b46c1a299716082121125" export-id="d0f28e48d7394dd19e3128f542079613" cached="false" width="100" height="100"><g transform="translate(21.963518 4.579851)"><g transform="matrix(.882296 0 0 0.786517 42.597657 39.405615)"><path d="M0,1.803h.897v11.667h-.897L0,1.803ZM1.446,13.47h.505v-11.667h-.505v11.667Zm.869,0h.504v-11.667h-.504v11.667Zm1.167,0h1.104v-11.667h-1.104v11.667Zm1.988,0h.552v-11.667h-.552v11.667Zm1.408,0h2.288v-11.667h-2.288v11.667Zm5.962,0h.752v-11.667h-.752v11.667ZM14.248,1.803v11.667h1.025v-11.667h-1.025ZM10.084,13.47h.492v-11.667h-.492v11.667Zm1.197,0h.492v-11.667h-.492v11.667Z" fill="#030104"/></g><g transform="matrix(.882296 0 0 0.786517 28.367836 39.405615)"><path d="M0,1.803h.897v11.667h-.897L0,1.803ZM1.446,13.47h.505v-11.667h-.505v11.667Zm.869,0h.504v-11.667h-.504v11.667Zm1.167,0h1.104v-11.667h-1.104v11.667Zm1.988,0h.552v-11.667h-.552v11.667Zm1.408,0h2.288v-11.667h-2.288v11.667Zm5.962,0h.752v-11.667h-.752v11.667ZM14.248,1.803v11.667h1.025v-11.667h-1.025ZM10.084,13.47h.492v-11.667h-.492v11.667Zm1.197,0h.492v-11.667h-.492v11.667Z" fill="#030104"/></g><g transform="matrix(.882296 0 0 0.786517 14.138015 39.405615)"><path d="M0,1.803h.897v11.667h-.897L0,1.803ZM1.446,13.47h.505v-11.667h-.505v11.667Zm.869,0h.504v-11.667h-.504v11.667Zm1.167,0h1.104v-11.667h-1.104v11.667Zm1.988,0h.552v-11.667h-.552v11.667Zm1.408,0h2.288v-11.667h-2.288v11.667Zm5.962,0h.752v-11.667h-.752v11.667ZM14.248,1.803v11.667h1.025v-11.667h-1.025ZM10.084,13.47h.492v-11.667h-.492v11.667Zm1.197,0h.492v-11.667h-.492v11.667Z" fill="#030104"/></g><g transform="matrix(.882296 0 0 0.786517 0 39.422206)"><path d="M0,1.803h.897v11.667h-.897L0,1.803ZM1.446,13.47h.505v-11.667h-.505v11.667Zm.869,0h.504v-11.667h-.504v11.667Zm1.167,0h1.104v-11.667h-1.104v11.667Zm1.988,0h.552v-11.667h-.552v11.667Zm1.408,0h2.288v-11.667h-2.288v11.667Zm5.962,0h.752v-11.667h-.752v11.667ZM14.248,1.803v11.667h1.025v-11.667h-1.025ZM10.084,13.47h.492v-11.667h-.492v11.667Zm1.197,0h.492v-11.667h-.492v11.667Z" fill="#030104"/></g></g></svg>
